<?xml version="1.0" standalone="no"?>
<!DOCTYPE svg PUBLIC "-//W3C//DTD SVG 20010904//EN"
 "http://www.w3.org/TR/2001/REC-SVG-20010904/DTD/svg10.dtd">
<svg version="1.0" xmlns="http://www.w3.org/2000/svg"
 width="225.000000pt" height="225.000000pt" viewBox="0 0 225.000000 225.000000"
 preserveAspectRatio="xMidYMid meet">
<metadata>
Created by potrace 1.11, written by Peter Selinger 2001-2013
</metadata>
<g transform="translate(0.000000,225.000000) scale(0.100000,-0.100000)"
fill="#000000" stroke="none">
<path d="M0 2165 l0 -85 88 46 c48 26 92 50 97 55 6 4 37 21 70 38 l60 30
-157 1 -158 0 0 -85z"/>
<path d="M890 2243 c0 -5 13 -45 29 -90 25 -67 57 -165 111 -339 26 -83 -2
-98 -52 -28 -61 85 -82 106 -100 99 -24 -10 -30 -31 -34 -120 -3 -85 -11 -95
-46 -55 -25 30 -30 25 -24 -25 4 -39 2 -45 -15 -45 -23 0 -24 -4 -3 -36 16
-23 16 -26 0 -37 -9 -7 -19 -32 -22 -57 -6 -42 -4 -47 25 -68 17 -13 35 -20
40 -17 5 3 21 0 36 -7 16 -7 21 -14 14 -19 -15 -9 -5 -25 19 -31 14 -4 18 1
18 26 0 17 -5 34 -11 38 -5 4 2 8 16 8 16 0 26 6 26 15 0 8 -4 15 -9 15 -5 0
-6 4 -3 10 3 5 -3 15 -15 22 -23 15 -27 48 -5 48 8 0 21 -16 29 -35 11 -25 23
-36 48 -43 18 -5 36 -7 40 -5 12 6 20 65 10 75 -6 6 -7 22 0 44 5 19 6 38 3
43 -3 5 -1 12 5 16 6 3 10 -4 11 -17 1 -17 4 -12 13 16 17 53 33 56 41 7 4
-23 11 -43 16 -47 5 -3 9 -13 9 -22 0 -10 9 -23 20 -30 17 -10 21 -10 26 3 10
26 38 16 63 -22 l24 -37 -26 17 c-49 32 -98 18 -103 -29 -4 -33 9 -44 53 -44
23 0 33 5 38 20 3 11 10 20 15 20 19 0 40 -13 40 -24 0 -6 13 -27 29 -46 l29
-35 -1 50 c0 28 -4 58 -9 68 -6 12 -5 17 7 17 8 0 19 -10 24 -22 11 -31 11
-267 -1 -274 -5 -3 -6 -14 -3 -24 4 -13 -1 -22 -15 -30 -16 -9 -20 -18 -16
-35 4 -15 -2 -30 -19 -49 -17 -19 -25 -38 -25 -64 0 -30 -4 -38 -20 -40 -11
-1 -29 -3 -40 -4 -11 -1 -20 -6 -20 -12 0 -14 -33 -35 -57 -36 -16 0 -23 -6
-23 -19 0 -13 -8 -21 -22 -23 -14 -2 -24 -12 -28 -28 -6 -23 -10 -25 -64 -23
-51 2 -57 0 -51 -15 18 -43 19 -55 2 -49 -10 4 -17 1 -18 -6 0 -7 -4 -2 -9 11
-10 23 -30 30 -30 10 0 -6 -10 -2 -22 9 -13 11 -30 18 -38 16 -10 -3 -11 -2
-4 4 6 4 14 18 18 30 6 19 3 22 -31 25 -24 2 -37 8 -36 16 2 6 -1 12 -6 12 -5
0 -1 18 10 40 23 46 24 78 4 104 -8 11 -15 29 -15 40 0 12 -6 33 -14 48 -8 14
-20 58 -26 97 -7 39 -16 68 -20 66 -20 -12 -36 -285 -17 -285 5 0 7 -6 4 -12
-2 -7 2 -26 11 -43 8 -16 21 -58 28 -94 16 -75 5 -170 -26 -236 -11 -22 -40
-106 -65 -187 -26 -81 -58 -164 -71 -184 -35 -51 -20 -57 21 -9 19 22 34 34
35 28 0 -7 5 -13 11 -13 5 0 8 4 5 8 -3 5 5 24 16 43 14 23 22 54 24 96 2 34
12 102 24 150 19 82 28 110 51 155 5 10 9 25 9 34 0 11 8 14 30 12 34 -4 46
15 13 20 -35 5 -27 22 8 18 44 -5 58 -22 33 -41 -11 -9 -14 -14 -6 -15 7 0 24
-11 37 -24 14 -14 38 -33 55 -42 16 -10 30 -26 30 -35 0 -21 14 -26 99 -37 50
-7 70 -6 94 6 22 11 32 12 35 4 2 -7 12 -12 22 -12 14 0 22 -12 31 -42 6 -24
20 -68 30 -99 26 -76 25 -85 -6 -65 -29 19 -36 1 -8 -20 17 -12 16 -13 -4 -14
-18 0 -23 -6 -23 -24 0 -30 -16 -42 -35 -26 -12 10 -15 9 -15 -9 0 -11 -4 -21
-9 -21 -5 0 -12 -11 -15 -25 -4 -14 -11 -25 -16 -25 -6 0 -10 -7 -10 -16 0
-13 -3 -14 -15 -4 -16 13 -35 6 -35 -13 0 -15 -33 -81 -50 -102 -6 -7 -24 -17
-40 -20 -19 -4 -30 -14 -35 -32 -8 -32 -4 -36 29 -24 17 7 26 7 26 0 0 -6 75
-9 211 -8 117 0 206 5 199 9 -7 4 -9 13 -5 20 6 9 4 11 -5 5 -10 -6 -12 -4 -7
9 4 10 7 23 7 29 0 7 7 4 14 -6 11 -14 15 -15 20 -5 5 10 7 10 12 1 3 -7 12
-13 19 -13 8 0 18 -6 22 -14 18 -31 98 -51 87 -22 -3 8 5 21 17 30 17 12 20
18 11 29 -9 10 -9 16 0 25 9 9 8 21 -1 51 -12 40 -11 41 29 77 22 20 40 43 40
50 0 19 -19 18 -26 -1 -13 -32 -64 -10 -64 27 0 10 -7 18 -15 18 -8 0 -15 -6
-15 -14 0 -7 -9 -16 -20 -19 -15 -4 -22 1 -26 18 -3 13 -14 25 -23 28 -19 4
-31 44 -31 101 0 17 -7 40 -16 51 -13 17 -16 18 -25 5 -5 -8 -8 -29 -6 -47 2
-27 0 -30 -14 -23 -19 11 -30 33 -35 70 -6 48 -14 68 -29 74 -19 7 -20 -23 -1
-38 19 -15 31 -56 16 -56 -7 0 -14 9 -17 19 -5 20 -29 35 -43 26 -15 -10 -28
21 -34 86 -5 47 -4 69 4 74 9 6 9 10 -1 16 -11 6 -10 9 3 14 14 5 14 10 3 31
-10 21 -9 30 8 65 11 22 34 50 52 62 81 55 106 86 126 155 31 100 38 111 83
123 53 14 61 20 45 30 -8 5 -9 9 -3 9 6 0 24 -15 41 -32 18 -18 41 -42 53 -53
31 -29 80 -106 80 -125 0 -20 40 -38 165 -75 50 -15 131 -40 180 -55 50 -15
105 -31 123 -35 l32 -7 0 61 c0 51 -3 61 -20 66 -11 3 -20 11 -20 16 0 6 8 6
20 -1 31 -17 23 4 -9 23 -37 21 -47 22 -30 0 13 -15 12 -15 -16 0 -41 22 -93
66 -78 67 6 0 15 -5 18 -10 3 -5 11 -10 18 -10 6 0 4 8 -6 17 -13 13 -22 15
-35 7 -13 -8 -21 -6 -34 8 -19 19 -17 20 17 22 11 1 20 8 20 16 0 8 -9 16 -20
17 l-20 3 20 -9 c18 -9 18 -10 -6 -10 -15 -1 -32 6 -39 14 -7 8 -18 15 -24 15
-6 0 -5 -4 3 -9 12 -8 12 -12 2 -25 -8 -9 -18 -16 -24 -16 -6 0 -2 7 9 15 14
11 16 15 4 15 -8 0 -26 10 -39 21 -20 16 -22 22 -11 29 11 7 11 11 1 24 -8 9
-19 16 -25 16 -6 0 -2 -8 9 -16 19 -16 19 -16 -5 -9 -14 4 -26 12 -28 16 -2 5
-16 9 -30 9 -21 0 -24 2 -12 10 13 8 13 10 -2 10 -9 0 -20 4 -23 10 -4 6 6 8
25 6 30 -3 30 -3 14 16 -12 12 -20 15 -25 7 -8 -13 -49 -3 -49 13 0 12 -34 45
-72 70 -15 10 -35 31 -44 48 -10 16 -25 30 -34 30 -12 0 -12 2 -2 9 11 6 7 13
-14 30 -15 12 -29 29 -30 38 -2 8 -15 28 -30 44 -15 16 -24 29 -19 29 4 0 -2
8 -13 19 -12 10 -19 21 -15 24 3 4 -2 9 -11 13 -9 3 -13 10 -10 15 3 5 -2 9
-10 9 -9 0 -16 9 -16 20 0 11 -4 20 -9 20 -5 0 -14 14 -20 32 -6 17 -18 39
-27 49 -9 10 -11 19 -5 23 5 4 17 -4 25 -16 9 -12 16 -17 16 -11 0 15 -39 61
-40 46 0 -18 -20 -16 -20 1 0 7 -7 19 -15 26 -8 7 -12 16 -9 21 3 5 1 9 -3 9
-9 0 -12 5 -107 199 -37 74 -65 139 -62 145 2 6 9 -2 15 -18 7 -16 25 -48 40
-71 16 -23 34 -58 40 -76 6 -19 22 -52 35 -73 23 -39 24 -39 37 -18 8 12 19
22 26 22 18 0 16 35 -2 50 -10 9 -15 9 -15 1 0 -6 5 -11 10 -11 6 0 10 -5 10
-11 0 -5 -4 -7 -10 -4 -5 3 -10 0 -10 -8 0 -13 -29 -33 -35 -25 -17 20 -41 98
-34 110 5 9 3 22 -6 34 -13 18 -14 18 -8 -3 9 -38 -3 -26 -37 34 -20 35 -28
59 -21 61 16 5 14 27 -4 42 -13 11 -14 10 -9 -4 8 -22 -12 -20 -28 2 -11 17
-30 19 -160 21 -82 1 -148 -2 -148 -6z m108 -649 c1 -32 1 -32 -41 -27 -23 3
-47 10 -54 15 -13 10 -56 -15 -83 -47 -19 -23 -29 -18 -25 15 6 46 28 63 73
56 23 -4 46 -1 62 9 42 24 67 16 68 -21z m286 -106 c-7 -10 -34 -10 -34 0 0 4
5 13 12 20 9 9 14 9 19 0 4 -7 5 -16 3 -20z m-464 -18 c5 0 12 4 15 10 4 6 13
5 25 -3 20 -12 27 -29 13 -25 -5 0 -16 -2 -25 -6 -30 -14 -48 1 -47 36 1 24 3
27 6 11 2 -13 8 -23 13 -23z m610 -365 c0 -8 -4 -15 -10 -15 -5 0 -10 7 -10
15 0 8 5 15 10 15 6 0 10 -7 10 -15z m610 -29 c0 -2 -7 -9 -15 -16 -13 -11
-14 -10 -9 4 5 14 24 23 24 12z m-1260 -256 c0 -5 -5 -10 -11 -10 -5 0 -7 5
-4 10 3 6 8 10 11 10 2 0 4 -4 4 -10z m115 -90 c3 -5 2 -10 -4 -10 -5 0 -13 5
-16 10 -3 6 -2 10 4 10 5 0 13 -4 16 -10z m75 -36 c0 -8 -4 -12 -10 -9 -5 3
-10 13 -10 21 0 8 5 12 10 9 6 -3 10 -13 10 -21z m-20 -14 c0 -5 -4 -10 -10
-10 -5 0 -10 5 -10 10 0 6 5 10 10 10 6 0 10 -4 10 -10z m583 -587 c22 -4 25
-8 16 -19 -15 -18 -38 -18 -45 1 -4 8 -12 15 -20 15 -8 0 -14 5 -14 11 0 7 7
8 18 4 9 -3 29 -9 45 -12z m-166 -65 c-3 -7 -5 -2 -5 12 0 14 2 19 5 13 2 -7
2 -19 0 -25z"/>
<path d="M1267 2243 c-13 -13 -7 -24 11 -19 19 6 22 2 109 -164 89 -167 195
-334 320 -501 114 -151 335 -358 486 -453 l57 -37 0 591 0 590 -488 0 c-269 0
-492 -3 -495 -7z"/>
<path d="M1315 2140 c-3 -5 1 -10 10 -10 9 0 13 5 10 10 -3 6 -8 10 -10 10 -2
0 -7 -4 -10 -10z"/>
<path d="M1320 2111 c0 -6 5 -13 10 -16 6 -3 10 1 10 9 0 9 -4 16 -10 16 -5 0
-10 -4 -10 -9z"/>
<path d="M1360 1905 c0 -2 9 -19 20 -37 23 -39 27 -30 5 12 -14 27 -25 38 -25
25z"/>
<path d="M1440 1900 c0 -5 6 -10 13 -10 8 0 7 -3 -3 -10 -11 -7 -12 -12 -4
-20 16 -16 27 4 19 30 -7 21 -25 28 -25 10z"/>
<path d="M1421 1836 c-8 -9 -11 -19 -7 -23 9 -9 29 13 24 27 -2 8 -8 7 -17 -4z"/>
<path d="M1509 1786 c9 -11 9 -15 -1 -19 -10 -3 -10 -8 -2 -17 8 -8 14 -9 19
-1 8 15 -3 51 -17 51 -7 0 -6 -5 1 -14z"/>
<path d="M1480 1743 c17 -8 11 -26 -6 -19 -14 5 -15 4 -4 -9 7 -8 17 -15 22
-15 14 0 5 43 -10 46 -7 1 -8 0 -2 -3z"/>
<path d="M1573 1677 c2 -27 11 -35 21 -18 3 4 -1 17 -8 27 -13 17 -14 17 -13
-9z"/>
<path d="M1505 1663 c31 -59 65 -83 65 -48 0 9 -6 12 -15 9 -9 -4 -22 6 -36
30 -25 42 -37 49 -14 9z"/>
<path d="M1644 1580 c0 -11 4 -20 8 -20 4 0 8 9 8 20 0 11 -4 20 -8 20 -4 0
-8 -9 -8 -20z"/>
<path d="M1564 1562 c0 -11 3 -19 7 -16 4 2 16 -7 27 -20 14 -19 22 -22 31
-13 16 16 14 27 -4 21 -8 -4 -24 5 -38 21 -21 25 -23 25 -23 7z"/>
<path d="M1709 1508 c9 -13 10 -18 2 -18 -7 0 -9 -4 -6 -10 3 -5 10 -10 16
-10 15 0 10 27 -8 41 -16 13 -17 12 -4 -3z"/>
<path d="M1620 1486 c0 -2 16 -21 35 -42 20 -21 33 -44 31 -51 -3 -7 0 -15 6
-19 7 -4 8 -3 4 4 -13 21 10 12 34 -13 22 -23 40 -25 40 -4 0 6 -4 8 -9 5 -5
-3 -23 7 -41 23 -21 18 -29 31 -21 35 16 11 13 26 -4 20 -9 -4 -23 4 -36 20
-17 22 -39 35 -39 22z"/>
<path d="M1203 1426 c-36 -17 -30 -37 7 -25 17 6 30 17 30 25 0 16 -6 16 -37
0z"/>
<path d="M796 1411 c-4 -5 -2 -12 3 -15 5 -4 12 -2 15 3 4 5 2 12 -3 15 -5 4
-12 2 -15 -3z"/>
<path d="M1781 1411 c-8 -6 -9 -11 -3 -15 6 -3 14 -1 17 5 9 14 2 20 -14 10z"/>
<path d="M996 1382 c-2 -4 -1 -14 5 -22 5 -8 9 -18 9 -21 0 -10 -34 -5 -42 6
-4 5 -6 -5 -6 -23 1 -17 4 -29 8 -27 11 7 33 -42 26 -54 -4 -6 0 -14 8 -17 9
-3 13 -10 10 -15 -3 -5 -1 -9 3 -9 11 0 35 19 53 43 12 17 11 18 -12 12 -15
-4 -29 -2 -32 4 -5 7 6 11 31 11 49 0 75 15 44 25 -11 3 -21 13 -21 21 0 8 -7
14 -16 14 -13 0 -14 3 -4 15 14 17 4 39 -16 31 -7 -3 -16 -1 -19 4 -7 12 -22
13 -29 2z"/>
<path d="M1190 1380 c-9 -6 -10 -10 -3 -10 6 0 15 5 18 10 8 12 4 12 -15 0z"/>
<path d="M1228 1363 c6 -2 18 -2 25 0 6 3 1 5 -13 5 -14 0 -19 -2 -12 -5z"/>
<path d="M1710 1345 c7 -9 15 -13 17 -11 7 7 -7 26 -19 26 -6 0 -6 -6 2 -15z"/>
<path d="M1850 1351 c13 -10 13 -12 0 -21 -13 -8 -12 -10 3 -10 22 0 19 31 -3
37 -13 4 -13 3 0 -6z"/>
<path d="M1180 1330 c0 -10 26 -20 48 -20 14 1 14 3 -3 12 -25 15 -45 19 -45
8z"/>
<path d="M1770 1326 c0 -11 30 -39 36 -34 2 3 -5 13 -16 23 -11 10 -20 15 -20
11z"/>
<path d="M910 1296 c0 -13 7 -26 15 -30 24 -9 17 -24 -12 -29 -23 -3 -21 -4
10 -6 20 0 37 -6 37 -12 0 -5 5 -7 10 -4 17 10 11 37 -16 72 -30 39 -44 42
-44 9z"/>
<path d="M1830 1300 c12 -8 13 -11 1 -19 -8 -5 -9 -11 -3 -15 6 -3 14 -2 17 4
9 15 -2 40 -17 40 -9 0 -9 -3 2 -10z"/>
<path d="M1935 1259 c-4 -6 -5 -13 -2 -16 7 -7 27 6 27 18 0 12 -17 12 -25 -2z"/>
<path d="M838 1233 c6 -2 18 -2 25 0 6 3 1 5 -13 5 -14 0 -19 -2 -12 -5z"/>
<path d="M1910 1233 c7 -3 7 -10 -2 -21 -11 -13 -11 -14 2 -10 18 6 20 30 2
34 -7 1 -8 0 -2 -3z"/>
<path d="M2010 1213 c8 -3 7 -9 -1 -19 -9 -11 -8 -14 6 -14 19 0 17 32 -3 36
-7 1 -8 0 -2 -3z"/>
<path d="M1988 1158 c10 -13 10 -17 0 -21 -7 -2 -10 -8 -5 -12 4 -5 13 -3 19
3 9 9 8 16 -7 30 -16 14 -17 14 -7 0z"/>
<path d="M2093 1134 c-9 -9 -10 -15 -2 -20 14 -8 30 8 21 22 -5 9 -10 8 -19
-2z"/>
<path d="M2164 1075 c3 -9 6 -19 6 -21 0 -2 7 -4 16 -4 22 0 13 34 -10 38 -14
3 -17 0 -12 -13z"/>
<path d="M2155 1030 c3 -5 8 -10 11 -10 2 0 4 5 4 10 0 6 -5 10 -11 10 -5 0
-7 -4 -4 -10z"/>
<path d="M2166 1010 c-17 -6 -18 -7 -3 -13 9 -3 19 -2 23 4 9 15 2 18 -20 9z"/>
<path d="M1167 533 c-4 -3 -7 -11 -7 -17 0 -6 5 -5 12 2 6 6 9 14 7 17 -3 3
-9 2 -12 -2z"/>
<path d="M810 324 c0 -8 5 -12 10 -9 6 3 10 10 10 16 0 5 -4 9 -10 9 -5 0 -10
-7 -10 -16z"/>
<path d="M782 245 c-15 -33 -15 -35 2 -35 18 0 28 27 18 46 -7 12 -11 10 -20
-11z"/>
<path d="M422 117 c-7 -16 -12 -40 -12 -53 0 -14 -4 -33 -9 -42 -8 -15 -1 -17
65 -18 62 -1 70 1 51 11 -67 35 -69 37 -58 48 8 8 7 15 -3 26 -8 9 -16 25 -18
36 -4 18 -6 17 -16 -8z"/>
<path d="M789 113 c-1 -5 -2 -21 -3 -37 -1 -15 -9 -34 -19 -41 -15 -11 -14
-13 9 -23 14 -7 41 -12 60 -12 l36 0 -31 31 c-21 20 -31 40 -31 60 0 25 -18
43 -21 22z"/>
<path d="M490 92 c0 -24 18 -38 31 -25 6 6 2 16 -11 28 -19 18 -20 18 -20 -3z"/>
<path d="M567 51 c-6 -25 0 -31 31 -31 21 0 22 2 12 15 -10 12 -9 15 4 15 10
0 14 5 11 10 -11 18 -52 11 -58 -9z"/>
<path d="M703 23 c9 -2 23 -2 30 0 6 3 -1 5 -18 5 -16 0 -22 -2 -12 -5z"/>
</g>
</svg>
